<?xml version="1.0" encoding="UTF-8"?>
<mxfile host="app.diagrams.net" agent="Mozilla/5.0 (Macintosh; Intel Mac OS X 10_15_7) AppleWebKit/537.36 (KHTML, like Gecko) Chrome/133.0.0.0 Safari/537.36" version="26.0.12">
  <diagram name="Page-1" id="vVbSO-e79iIkMeD3_59k">
    <mxGraphModel dx="913" dy="580" grid="1" gridSize="10" guides="1" tooltips="1" connect="1" arrows="1" fold="1" page="1" pageScale="1" pageWidth="850" pageHeight="1100" math="0" shadow="0">
      <root>
        <mxCell id="0" />
        <mxCell id="1" parent="0" />
        <mxCell id="RJoVjrzdwJ8fRxYniyrK-2" value="&lt;u&gt;Customer Portal UI&lt;/u&gt;&lt;div&gt;- Sends Order Status Request&amp;nbsp;&lt;/div&gt;" style="rounded=0;whiteSpace=wrap;html=1;" parent="1" vertex="1">
          <mxGeometry x="331" y="30" width="195" height="60" as="geometry" />
        </mxCell>
        <mxCell id="RJoVjrzdwJ8fRxYniyrK-3" value="Temporal Orchestrator" style="rounded=0;whiteSpace=wrap;html=1;fillColor=#fff2cc;strokeColor=#d6b656;" parent="1" vertex="1">
          <mxGeometry x="328.5" y="170" width="197.5" height="90" as="geometry" />
        </mxCell>
        <mxCell id="NqQfuoimNPptC4f2pE94-2" value="Order Service" style="rounded=0;whiteSpace=wrap;html=1;fillColor=#fff2cc;strokeColor=#d6b656;" vertex="1" parent="1">
          <mxGeometry x="350" y="370" width="160" height="70" as="geometry" />
        </mxCell>
        <mxCell id="NqQfuoimNPptC4f2pE94-6" value="1. User submits order status request&lt;div&gt;4. Returns Order Record&lt;/div&gt;" style="text;html=1;align=center;verticalAlign=middle;whiteSpace=wrap;rounded=0;" vertex="1" parent="1">
          <mxGeometry x="420" y="100" width="247" height="58" as="geometry" />
        </mxCell>
        <mxCell id="NqQfuoimNPptC4f2pE94-8" value="2. Retrieves order application via GET request&lt;div&gt;3. Order Service returns Order Record&lt;/div&gt;" style="text;html=1;align=center;verticalAlign=middle;whiteSpace=wrap;rounded=0;" vertex="1" parent="1">
          <mxGeometry x="425" y="290" width="295" height="58" as="geometry" />
        </mxCell>
        <mxCell id="NqQfuoimNPptC4f2pE94-9" value="" style="endArrow=classic;startArrow=classic;html=1;rounded=0;exitX=0.5;exitY=0;exitDx=0;exitDy=0;" edge="1" parent="1" source="NqQfuoimNPptC4f2pE94-2">
          <mxGeometry width="50" height="50" relative="1" as="geometry">
            <mxPoint x="400" y="310" as="sourcePoint" />
            <mxPoint x="430" y="260" as="targetPoint" />
          </mxGeometry>
        </mxCell>
        <mxCell id="NqQfuoimNPptC4f2pE94-11" value="" style="endArrow=classic;startArrow=classic;html=1;rounded=0;entryX=0.5;entryY=1;entryDx=0;entryDy=0;exitX=0.5;exitY=0;exitDx=0;exitDy=0;" edge="1" parent="1" source="RJoVjrzdwJ8fRxYniyrK-3" target="RJoVjrzdwJ8fRxYniyrK-2">
          <mxGeometry width="50" height="50" relative="1" as="geometry">
            <mxPoint x="390" y="150" as="sourcePoint" />
            <mxPoint x="440" y="100" as="targetPoint" />
          </mxGeometry>
        </mxCell>
      </root>
    </mxGraphModel>
  </diagram>
</mxfile>
